<svg xmlns="http://www.w3.org/2000/svg" xmlns:xlink="http://www.w3.org/1999/xlink" version="1.1" x="0px" y="0px" viewBox="-429 431 100 125" style="enable-background:new -429 431 100 100;" xml:space="preserve"><g><path d="M-370.1,494.7c0.7,0.2,1.3,0.4,1.9,0.7c5.6,2.1,10.2,5.5,13.8,10.2c2.8,3.7,5.6,10.5,6.3,15c0.1,0.6,0.2,1.3,0.2,1.9   c0,0.5-0.2,1.3-0.5,1.8c-0.6,0.9-1.5,1.3-2.5,1.3c-0.1,0-0.1,0-0.2,0c-18.4,0-36.9,0-55.3,0c-0.6,0-1.2-0.1-1.7-0.4   c-1.1-0.6-1.6-1.7-1.5-3c0.2-1.6,0.4-3.1,0.8-4.6c2.1-8.9,7.8-16.4,15.7-20.6c1.7-0.9,3.5-1.6,5.4-2.2c0.1,0,0.2-0.1,0.3-0.1   c0,0,0,0,0.1-0.1c0-0.5,0-0.9,0-1.4c0-0.3-0.1-0.6-0.4-0.8c-0.3-0.2-0.5-0.5-0.8-0.8c-0.2-0.2-0.4-0.3-0.7-0.3c-0.6,0-1.1,0-1.7,0   c-1.7,0-3.3-0.4-4.7-1.3c-2.7-1.6-4.3-3.9-4.9-7c-0.1-0.6-0.1-1.2-0.1-1.8c0-5.8,0-11.6,0-17.4c0-0.8,0-1.7,0.2-2.5   c0.2-1.7,0.6-3.4,1.1-5c1-3.2,2.5-6.2,4.8-8.7c2.8-3.2,8.7-6.2,12.9-6.6c0.4,0,0.8-0.1,1.3-0.1c1,0,2-0.1,2.9,0   c4.7,0.2,9,1.5,12.8,4.3c4.6,3.3,7.4,7.9,8.4,13.7c0.2,1,0.1,2,0.1,3c0,0.3,0,0.5,0,0.8c0,6.3,0,12.6,0,18.9c0,4-2,7-5.6,8.9   c-0.8,0.5-1.8,0.8-2.7,0.9c-1.3,0.1-2.5,0.1-3.8,0.1c-0.3,0-0.7,0.1-0.9,0.4c-0.3,0.3-0.6,0.6-0.9,0.9c-0.1,0.1-0.2,0.2-0.1,0.4   C-370.2,493.6-370.1,494.2-370.1,494.7z M-386.7,458.7C-386.8,458.8-386.8,458.8-386.7,458.7c-0.2,0.3-0.2,0.4-0.3,0.6   c-0.7,1.7-1.5,3.4-2.5,4.9c-0.5,0.8-1.1,1.5-1.8,2.1c-0.3,0.2-0.5,0.4-0.8,0.6c0,1.3-0.1,2.5-0.1,3.8c0,1.8,0,3.7,0,5.5   c0,1.6,0.1,3.1,0.4,4.7c0.1,0.6,0.3,1.2,0.5,1.8c1.5,3.3,3.5,6.2,6.2,8.6c0.9,0.8,2,1.6,3.1,2.2c1.1,0.6,2.3,1,3.5,0.9   c1,0,1.9-0.3,2.8-0.7c1.1-0.5,2.1-1.1,3-1.9c2.9-2.4,5-5.3,6.6-8.6c0.4-0.8,0.6-1.6,0.7-2.4c0.3-2.1,0.4-4.2,0.4-6.4   c0-2-0.1-3.9-0.1-5.9c0-0.2,0-0.4,0-0.6c-0.3,0-0.6,0-0.8,0c-0.5,0-0.9,0-1.3-0.1c-1.7-0.2-3.3-0.7-5-1.4c-1.7-0.7-3.4-1.5-5-2.4   c-2.3-1.3-4.5-2.6-6.8-3.9C-385,459.7-385.9,459.2-386.7,458.7z M-373.1,495.1c-0.2,0.1-0.3,0.2-0.4,0.2c-0.7,0.4-1.3,0.7-2.1,1   c-1.7,0.6-3.4,0.8-5.1,0.4c-1.2-0.3-2.3-0.7-3.3-1.3c-0.1-0.1-0.2-0.1-0.4-0.2c0,0.2,0,0.3,0,0.4c0,0.8,0,1.6,0.1,2.5   c0,0.4,0.2,1.1,0.4,1.5c0.6,1.4,1.5,2.6,2.7,3.6c0.5,0.4,1,0.8,1.7,1c0.5,0.2,1,0.2,1.5,0c0.5-0.2,0.9-0.5,1.4-0.8   c1.3-1,2.3-2.3,3-3.8c0.2-0.5,0.4-1,0.4-1.5c0-0.7,0.1-1.5,0.1-2.2C-373.1,495.6-373.1,495.4-373.1,495.1z M-362.7,468   c0,2.8,0.1,5.6,0.1,8.4c1.3-0.9,2.2-2.6,2.4-4.2c0.1-1,0-2.2-0.6-3C-361.1,468.8-362.2,467.7-362.7,468   C-362.7,468-362.4,467.8-362.7,468z M-394.9,474.6c0-1.9,0-4.2,0.1-6C-396,469.8-396,472.9-394.9,474.6z"/><path d="M-379.9,481c-0.4,0-0.8,0-1.3,0c-0.5,0-0.8-0.3-0.8-0.8c0-0.5,0.3-0.8,0.8-0.8c0.7,0,1.5,0,2.2,0c0.1,0,0.2,0,0.4,0   c0.4,0,0.8,0.4,0.8,0.8c0,0.4-0.3,0.8-0.8,0.8C-379,481-379.5,481-379.9,481z"/></g><g><g><path d="M-375.3,484.6c-1,1.2-2.5,2.4-4.1,2.4c-1.6,0-3.1-1.2-4.1-2.4c-0.8-1-2.2,0.4-1.4,1.4c3.1,3.7,7.9,3.7,11,0    C-373.1,485-374.5,483.6-375.3,484.6L-375.3,484.6z"/></g></g><path d="M-380.2,479c-0.1,0.4-0.1,0.8-0.2,1.2c-0.1,0.5-0.4,0.7-0.9,0.7c-0.4,0-0.8-0.4-0.7-0.9c0.1-0.7,0.2-1.5,0.3-2.2  c0-0.1,0-0.2,0.1-0.4c0.1-0.4,0.5-0.7,0.9-0.7c0.4,0.1,0.7,0.4,0.7,0.9C-380.1,478.2-380.2,478.6-380.2,479z"/><path d="M-379.9,476.3c-0.1,0.4-0.1,0.8-0.2,1.2c-0.1,0.5-0.4,0.7-0.9,0.7c-0.4,0-0.8-0.4-0.7-0.9c0.1-0.7,0.2-1.5,0.3-2.2  c0-0.1,0-0.2,0.1-0.4c0.1-0.4,0.5-0.7,0.9-0.7c0.4,0.1,0.7,0.4,0.7,0.9C-379.8,475.5-379.8,475.9-379.9,476.3z"/><circle cx="-385.2" cy="471.4" r="1.1"/><circle cx="-374.9" cy="471.4" r="1.1"/><text x="-429" y="546" fill="#000000" font-size="5px" font-weight="bold" font-family="'Helvetica Neue', Helvetica, Arial-Unicode, Arial, Sans-serif">Created by Gyan Lakhwani</text><text x="-429" y="551" fill="#000000" font-size="5px" font-weight="bold" font-family="'Helvetica Neue', Helvetica, Arial-Unicode, Arial, Sans-serif">from the Noun Project</text></svg>